<?xml version="1.0" encoding="utf-8"?>
<!-- Generator: Adobe Illustrator 25.2.0, SVG Export Plug-In . SVG Version: 6.00 Build 0)  -->
<svg version="1.1" id="Capa_1" xmlns="http://www.w3.org/2000/svg" xmlns:xlink="http://www.w3.org/1999/xlink" x="0px" y="0px"
	 viewBox="0 0 425.2 383.2" style="enable-background:new 0 0 425.2 383.2;" xml:space="preserve">
<style type="text/css">
	.st0{fill:#BCBEC0;}
	.st1{fill:#7FA3D5;}
	.st2{fill:#5C1F5B;}
	.st3{fill:#5086B5;}
	.st4{fill:#7FA3D5;stroke:#5C1F5B;stroke-width:5.1658;stroke-linecap:round;stroke-linejoin:round;stroke-miterlimit:10;}
	.st5{fill:none;stroke:#5C1F5B;stroke-width:5.1658;stroke-linecap:round;stroke-linejoin:round;stroke-miterlimit:10;}
	.st6{fill:#D8D2E9;}
	.st7{fill:#CCC6E3;}
	.st8{fill:#B9B0D7;}
	.st9{fill:none;stroke:#FFFFFF;stroke-width:5.1658;stroke-linecap:round;stroke-linejoin:round;stroke-miterlimit:10;}
	.st10{fill:#979BCD;stroke:#5C1F5B;stroke-width:5.1658;stroke-linecap:round;stroke-linejoin:round;stroke-miterlimit:10;}
	.st11{fill:#979BCD;}
	.st12{fill:#838DC6;}
</style>
<path class="st0" d="M310,329.8c-8.8,0-17.2,0.3-25,0.7c-7.7-6.9-55.5-12.2-113.4-12.2c-63.2,0-114.5,6.3-114.5,14.1
	c0,7.8,51.3,14.1,114.5,14.1c21.5,0,41.7-0.7,58.9-2c1.9,7.5,36.8,13.5,79.6,13.5c44,0,79.6-6.3,79.6-14.1S354,329.8,310,329.8z"/>
<g>
	<g>
		<g>
			<path class="st1" d="M114.2,289.6c-1.2,0-2.3-0.9-2.5-2.1l-17.9-89.9c-0.2-0.8,0-1.5,0.5-2.1c0.5-0.6,1.2-0.9,2-0.9h157.8
				c1.2,0,2.3,0.9,2.5,2.1l17.9,89.9c0.2,0.8,0,1.5-0.5,2.1c-0.5,0.6-1.2,0.9-2,0.9H114.2z"/>
			<path class="st2" d="M254.1,197.2l17.9,89.9H114.2l-17.9-89.9H254.1 M254.1,192H96.3c-1.5,0-3,0.7-4,1.9c-1,1.2-1.4,2.8-1.1,4.3
				l17.9,89.9c0.5,2.4,2.6,4.2,5.1,4.2h157.8c1.5,0,3-0.7,4-1.9c1-1.2,1.4-2.8,1.1-4.3l-17.9-89.9C258.6,193.7,256.5,192,254.1,192
				L254.1,192z"/>
		</g>
		<polygon class="st3" points="254.1,197.2 233.9,197.2 248.4,269.9 110.8,269.9 114.2,287 271.9,287 		"/>
		<g>
			<line class="st4" x1="102" y1="225" x2="258.1" y2="225"/>
			<line class="st4" x1="108.5" y1="259.2" x2="266.2" y2="259.2"/>
		</g>
	</g>
	<polyline class="st5" points="114.6,309.4 108.9,281.3 86.3,167.6 48.8,167.1 	"/>
	<g>
		<path class="st4" d="M67.4,173.7C67.4,173.7,67.3,173.7,67.4,173.7l-25.6-0.3c-3.5,0-6.2-2.9-6.2-6.3c0-3.5,2.9-6.3,6.3-6.2
			l25.5,0.3c3.5,0,6.2,2.9,6.2,6.3C73.6,171,70.8,173.7,67.4,173.7z"/>
	</g>
	<line class="st5" x1="114.6" y1="309.4" x2="265.7" y2="308.7"/>
	<g>
		<g>
			<path class="st6" d="M140.6,335.1c-7.8,0-14.2-6.3-14.2-14.2c0-7.8,6.3-14.2,14.2-14.2c7.8,0,14.2,6.3,14.2,14.2
				C154.8,328.7,148.5,335.1,140.6,335.1z"/>
			<path class="st2" d="M140.6,309.4c6.4,0,11.6,5.2,11.6,11.6c0,6.4-5.2,11.6-11.6,11.6c-6.4,0-11.6-5.2-11.6-11.6
				C129.1,314.6,134.3,309.4,140.6,309.4 M140.6,304.2c-9.2,0-16.7,7.5-16.7,16.7c0,9.2,7.5,16.7,16.7,16.7
				c9.2,0,16.7-7.5,16.7-16.7C157.4,311.7,149.9,304.2,140.6,304.2L140.6,304.2z"/>
		</g>
		<g>
			<path class="st2" d="M144.6,320.9c0,2.2-1.8,4-4,4c-2.2,0-4-1.8-4-4c0-2.2,1.8-4,4-4C142.9,317,144.6,318.7,144.6,320.9z"/>
		</g>
		<g>
			<path class="st6" d="M245.9,335.1c-7.8,0-14.2-6.3-14.2-14.2c0-7.8,6.3-14.2,14.2-14.2c7.8,0,14.2,6.3,14.2,14.2
				C260.1,328.7,253.7,335.1,245.9,335.1z"/>
			<path class="st2" d="M245.9,309.4c6.4,0,11.6,5.2,11.6,11.6c0,6.4-5.2,11.6-11.6,11.6c-6.4,0-11.6-5.2-11.6-11.6
				C234.4,314.6,239.5,309.4,245.9,309.4 M245.9,304.2c-9.2,0-16.7,7.5-16.7,16.7c0,9.2,7.5,16.7,16.7,16.7
				c9.2,0,16.7-7.5,16.7-16.7C262.7,311.7,255.1,304.2,245.9,304.2L245.9,304.2z"/>
		</g>
		<g>
			<path class="st2" d="M249.9,320.9c0,2.2-1.8,4-4,4c-2.2,0-4-1.8-4-4c0-2.2,1.8-4,4-4C248.1,317,249.9,318.7,249.9,320.9z"/>
		</g>
	</g>
</g>
<g>
	<g>
		<g>
			<g>
				<g>
					<g>
						<path class="st6" d="M255.2,344.5c-2.9,0-5.6-2.9-6-6.4l-10.3-88.3c-0.4-3.5,2.1-6.4,5.6-6.4h131c3.5,0,6,2.8,5.6,6.4
							l-10.3,88.3c-0.4,3.5-3.1,6.4-6,6.4H255.2z"/>
						<g>
							<path class="st2" d="M375.2,246.1c2.1,0,3.5,1.7,3.3,3.8l-9.9,88.3c-0.2,2.1-1.8,3.8-3.6,3.8H254.9c-1.7,0-3.3-1.7-3.6-3.8
								l-9.9-88.3c-0.2-2.1,1.2-3.8,3.3-3.8H375.2 M375.7,240.9H244.2c-4.9,0-8.5,4-7.9,8.9l10.7,88.3c0.6,4.9,4.4,8.9,8.5,8.9h109
								c4.1,0,7.9-4,8.5-8.9l10.7-88.3C384.2,244.9,380.7,240.9,375.7,240.9L375.7,240.9z"/>
						</g>
					</g>
					<g>
						<path class="st7" d="M375.2,246.1h-19l-5.2,69.6c-0.2,2.1-1.8,3.8-3.6,3.8h-98.2l2.1,18.7c0.2,2.1,1.8,3.8,3.6,3.8H365
							c1.7,0,3.3-1.7,3.6-3.8l9.9-88.3C378.7,247.8,377.3,246.1,375.2,246.1z"/>
					</g>
					<g>
						<path class="st8" d="M375.2,246.1h-7.1l-7.6,80.1c-0.2,2.1-1.8,3.8-3.6,3.8H250.4l0.9,8.2c0.2,2.1,1.8,3.8,3.6,3.8H365
							c1.7,0,3.3-1.7,3.6-3.8l9.9-88.3C378.7,247.8,377.3,246.1,375.2,246.1z"/>
					</g>
					<line class="st9" x1="249.3" y1="268.2" x2="253.7" y2="311.3"/>
				</g>
			</g>
			<g>
				<path class="st10" d="M273.1,330.4c0.1,1.1-0.6,2.1-1.6,2.1h-4.7c-1,0-1.8-0.9-1.9-2.1l-4.5-52.7c-0.1-1.1,0.7-2.1,1.8-2.1h5.2
					c1.1,0,2,0.9,2.1,2.1L273.1,330.4z"/>
				<path class="st10" d="M293.6,330.4c0,1.1-0.7,2.1-1.7,2.1h-4.7c-1,0-1.8-0.9-1.8-2.1l-2.4-52.7c-0.1-1.1,0.8-2.1,1.8-2.1h5.2
					c1.1,0,2,0.9,2,2.1L293.6,330.4z"/>
				<path class="st10" d="M314.1,330.4c0,1.1-0.8,2.1-1.8,2.1h-4.6c-1,0-1.8-0.9-1.8-2.1l-0.4-52.7c0-1.1,0.9-2.1,1.9-2.1h5.1
					c1.1,0,1.9,0.9,1.9,2.1L314.1,330.4z"/>
				<path class="st10" d="M334.5,330.4c-0.1,1.1-0.9,2.1-1.8,2.1H328c-1,0-1.7-0.9-1.7-2.1l1.6-52.7c0-1.1,0.9-2.1,2-2.1h5.2
					c1.1,0,1.9,0.9,1.8,2.1L334.5,330.4z"/>
				<path class="st10" d="M355,330.4c-0.1,1.1-1,2.1-1.9,2.1h-4.7c-1,0-1.7-0.9-1.6-2.1l3.7-52.7c0.1-1.1,1-2.1,2.1-2.1h5.2
					c1.1,0,1.9,0.9,1.8,2.1L355,330.4z"/>
			</g>
		</g>
	</g>
	<g>
		<path class="st10" d="M263.7,248.9c-0.6,0.9-1.8,1.2-2.7,0.6l-4.3-2.8c-0.9-0.6-1.2-1.8-0.6-2.7l26.7-41.6
			c0.6-0.9,1.8-1.2,2.7-0.6l4.3,2.8c0.9,0.6,1.2,1.8,0.6,2.7L263.7,248.9z"/>
		<path class="st10" d="M356.2,248.9c0.6,0.9,1.8,1.2,2.7,0.6l4.3-2.8c0.9-0.6,1.2-1.8,0.6-2.7L337,202.5c-0.6-0.9-1.8-1.2-2.7-0.6
			l-4.3,2.8c-0.9,0.6-1.2,1.8-0.6,2.7L356.2,248.9z"/>
	</g>
	<g>
		<path class="st11" d="M235.5,263.8c-3.4,0-6.1-2.7-6.1-6.1v-10.8c0-3.4,2.7-6.1,6.1-6.1h148.8c3.4,0,6.1,2.8,6.1,6.1v10.8
			c0,3.4-2.7,6.1-6.1,6.1H235.5z"/>
		<path class="st2" d="M384.4,243.3c2,0,3.5,1.6,3.5,3.5v10.8c0,2-1.6,3.5-3.5,3.5H235.5c-2,0-3.5-1.6-3.5-3.5v-10.8
			c0-2,1.6-3.5,3.5-3.5H384.4 M384.4,238.2H235.5c-4.8,0-8.7,3.9-8.7,8.7v10.8c0,4.8,3.9,8.7,8.7,8.7h148.8c4.8,0,8.7-3.9,8.7-8.7
			v-10.8C393.1,242.1,389.2,238.2,384.4,238.2L384.4,238.2z"/>
	</g>
	<g>
		<path class="st12" d="M384.4,243.3h-7.1v5.4c0,2-1.6,3.5-3.5,3.5H232v5.4c0,2,1.6,3.5,3.5,3.5h148.8c2,0,3.5-1.6,3.5-3.5v-10.8
			C387.9,244.9,386.3,243.3,384.4,243.3z"/>
	</g>
</g>
</svg>
